<svg width="667" height="501" viewBox="0 0 667 501" fill="none" xmlns="http://www.w3.org/2000/svg">
<path d="M55.9995 143.5C62.7351 140.181 72.4995 136 74.4995 135C76.4995 134 60.9999 130 54.9999 132C48.9999 134 41.9999 132 36.0002 146C30.0005 160 31 171.5 31.5 185C32 198.5 37.0001 216.5 46.5001 230.5C56.0001 244.5 75.0001 261 85.0001 269C95.0001 277 128.5 282 141 282.5C153.5 283 200 271.5 200 271.5C256.641 238.905 285.651 219.491 356.999 193C373.936 192.339 372.215 187.506 385.499 196C394.278 235.101 394.81 290.91 397.999 303C401.189 315.09 403.819 322.754 408 330C412.181 337.246 424.5 356 435.999 364.5C454.354 350.897 456 346.5 488 317.5C525 274 531 270.5 565 253.5C583 248 667 226.5 666 224C665 221.5 616.564 218.436 575.5 224C547.364 229.205 530.907 236.662 500.999 253.5C500.999 253.5 451.999 298.5 448.999 297C445.999 295.5 445.499 239.5 445.499 239.5C445.499 239.5 443.499 201.5 438.999 190.5C434.499 179.5 423.999 157.5 416.999 151C409.999 144.5 408.999 141.5 397.999 138.5C386.999 135.5 349.999 138 335.999 141.5C321.999 145 280.5 170.5 280.5 170.5L206 218.5C187.281 229.123 177.973 235.891 149 239.5C123.614 243.114 109.667 243.678 87.4999 230.5C73.72 222.579 71.9996 215.5 61.9996 199.5C56.7548 189.584 53.9044 185.22 50.9989 167.5C50.507 164.5 49.2639 146.819 55.9995 143.5Z" fill="#6C00E0"/>
<path d="M175.5 155.883C165.128 154.398 0 342.883 0 342.883L103 179.383L175.5 87.3829C181.849 77.4733 191.5 75.3829 204.5 75.3829C217.5 75.3829 222.871 88.4047 229.5 110.883V217.383L326 75.3829C346.111 64.7692 357.389 61.3977 377.5 75.3829C377.5 75.3829 396 88.883 396 110.883C396 132.883 355 228.383 355 228.383C355 228.383 419.5 178.383 431.5 162.883C443.5 147.383 539.384 11.5179 546 3.88292C552.616 -3.75206 582.5 1.88302 585 3.88292C587.5 5.88283 599 5.38292 599 32.8829C599 60.3829 528.149 143.229 505.5 217.383C496.246 242.376 494 270.883 505.5 281.383C517 291.883 573.969 317.455 637 321.883C586.216 324.135 557.711 325.026 505.5 312.883C489.525 308.312 480.277 308.796 466.5 281.383C462.081 275.254 461.112 260.534 458.5 240.883C413.211 284.93 383.689 305.441 326 336.883C326 336.883 305.5 343.883 280 336.883C254.5 329.883 262.5 294.883 256.5 293.883C250.5 292.883 210 340.5 187 339.5C164 338.5 161 335.5 156 316C151 296.5 185.872 157.368 175.5 155.883Z" fill="#0A5CFF" fill-opacity="0.8"/>
<path d="M41.8164 454.172C42.168 451.633 42.9102 448.137 44.043 443.684C45.2148 439.191 46.6992 434.406 48.4961 429.328C52.5977 417.688 57.4609 407.316 63.0859 398.215C63.8672 396.965 64.8633 396.242 66.0742 396.047C67.793 395.812 69.2969 395.695 70.5859 395.695C71.9141 395.695 73.0859 395.852 74.1016 396.164C75.1562 396.438 75.9766 396.809 76.5625 397.277C77.7344 398.254 77.9297 399.289 77.1484 400.383C70.0781 411.047 63.9062 424.055 58.6328 439.406C56.6406 445.266 55.4492 449.348 55.0586 451.652C54.668 453.918 54.375 455.48 54.1797 456.34C54.0234 457.16 53.9453 457.883 53.9453 458.508C53.9453 459.797 54.7656 460.441 56.4062 460.441C58.0469 460.441 59.8828 460.07 61.9141 459.328C63.9453 458.547 66.1328 457.473 68.4766 456.105C70.8203 454.699 73.2422 453 75.7422 451.008C78.2812 449.016 80.7617 446.789 83.1836 444.328C85.6055 441.828 87.8906 439.133 90.0391 436.242C92.1875 433.352 94.0625 430.305 95.6641 427.102C99.2188 420.07 100.996 413.137 100.996 406.301C100.996 396.926 97.1875 390.695 89.5703 387.609C86.9141 386.555 84.1406 386.027 81.25 386.027C78.3984 386.027 75.9766 386.223 73.9844 386.613C71.9922 386.965 70.0781 387.473 68.2422 388.137C64.5312 389.465 61.4062 391.242 58.8672 393.469C58.2031 393.859 57.4023 394.055 56.4648 394.055C55.5273 394.055 54.5117 393.781 53.418 393.234C52.3633 392.688 51.4062 392.004 50.5469 391.184C48.5938 389.27 47.8125 387.434 48.2031 385.676C48.6328 383.176 52.3828 381.008 59.4531 379.172C65.3906 377.648 71.3672 376.887 77.3828 376.887C83.3984 376.887 88.8086 377.707 93.6133 379.348C98.457 380.988 102.383 383.195 105.391 385.969C111.016 391.203 113.828 398.215 113.828 407.004C113.828 418.645 109.805 429.875 101.758 440.695C94.375 450.734 85.5859 458.352 75.3906 463.547C68.7891 466.906 62.7148 468.586 57.168 468.586C52.832 468.586 49.1016 467.316 45.9766 464.777C42.6172 462.082 41.2305 458.547 41.8164 454.172ZM116.582 447.492C116.738 444.094 117.305 440.852 118.281 437.766C119.258 434.641 120.566 431.633 122.207 428.742C123.848 425.812 125.762 423.059 127.949 420.48C130.176 417.863 132.578 415.578 135.156 413.625C140.742 409.445 146.387 407.355 152.09 407.355C158.77 407.355 163.223 410.109 165.449 415.617C166.23 417.492 166.602 419.719 166.562 422.297C166.523 424.836 166.035 427.199 165.098 429.387C164.16 431.535 162.852 433.508 161.172 435.305C159.531 437.062 157.559 438.645 155.254 440.051C152.988 441.457 150.508 442.648 147.812 443.625C142.266 445.578 136.328 446.594 130 446.672C129.844 447.219 129.746 448.039 129.707 449.133C129.668 450.227 129.785 451.457 130.059 452.824C130.332 454.152 130.801 455.344 131.465 456.398C132.871 458.742 134.902 459.914 137.559 459.914C142.09 459.914 146.504 458.586 150.801 455.93C152.324 455.031 153.555 454.113 154.492 453.176C155.469 452.199 156.309 451.711 157.012 451.711C157.715 451.711 158.32 452.141 158.828 453C159.375 453.82 159.648 454.758 159.648 455.812C159.648 457.883 159.062 459.68 157.891 461.203C152.969 466.125 145.645 468.586 135.918 468.586C130.176 468.586 125.566 466.867 122.09 463.43C118.184 459.523 116.348 454.211 116.582 447.492ZM150.801 415.148C146.699 415.148 142.754 417.961 138.965 423.586C135.762 428.43 133.184 434.172 131.23 440.812C137.754 440.148 143.418 437.57 148.223 433.078C152.637 428.859 154.844 424.816 154.844 420.949C154.844 417.082 153.496 415.148 150.801 415.148ZM183.145 445.207L182.617 449.719C182.617 454.445 184.199 457.668 187.363 459.387C188.457 459.973 189.766 460.266 191.289 460.266C192.812 460.266 194.18 460.012 195.391 459.504C196.602 458.957 197.598 458.254 198.379 457.395C200.02 455.637 200.84 453.605 200.84 451.301C200.84 448.996 200.371 446.906 199.434 445.031C198.496 443.156 197.324 441.281 195.918 439.406L191.23 433.664C187.441 429.133 184.902 425.012 183.613 421.301C182.324 417.551 181.68 414.113 181.68 410.988C181.68 407.863 182.051 404.914 182.793 402.141C183.574 399.328 184.648 396.672 186.016 394.172C187.383 391.633 189.023 389.309 190.938 387.199C192.852 385.09 194.98 383.273 197.324 381.75C202.207 378.469 207.051 376.828 211.855 376.828C216.66 376.828 220.41 377.492 223.105 378.82C225.801 380.148 227.969 381.828 229.609 383.859C232.656 387.688 234.18 392.316 234.18 397.746C234.18 402.785 232.754 407.531 229.902 411.984C227.285 416.047 224.355 418.625 221.113 419.719C220.41 420.07 219.434 420.246 218.184 420.246C216.973 420.246 215.938 420.07 215.078 419.719C214.258 419.328 213.535 418.82 212.91 418.195C211.543 416.828 210.859 415.344 210.859 413.742C210.859 412.648 211.191 411.926 211.855 411.574C214.824 409.973 217.402 407.648 219.59 404.602C221.973 401.281 223.223 397.98 223.34 394.699C223.457 391.379 222.656 388.938 220.938 387.375C219.258 385.773 217.012 384.973 214.199 384.973C211.387 384.973 208.848 385.617 206.582 386.906C204.316 388.156 202.363 389.855 200.723 392.004C197.207 396.613 195.449 402.062 195.449 408.352C195.449 412.531 196.895 416.945 199.785 421.594C200.996 423.586 202.305 425.559 203.711 427.512C205.156 429.426 206.504 431.398 207.754 433.43C210.605 438.156 212.031 442.395 212.031 446.145C212.031 449.895 211.348 453.059 209.98 455.637C208.652 458.215 206.875 460.461 204.648 462.375C199.844 466.516 194.375 468.586 188.242 468.586C182.461 468.586 178.008 466.867 174.883 463.43C172.383 460.656 171.133 457.648 171.133 454.406C171.133 450.891 172.129 447.922 174.121 445.5C175.645 443.664 177.109 442.57 178.516 442.219C181.602 441.398 183.145 442.395 183.145 445.207ZM263.652 452.648C264.785 452.648 265.352 453.41 265.352 454.934C265.352 456.223 264.961 457.473 264.18 458.684C263.125 460.949 261.016 463.098 257.852 465.129C254.258 467.434 250.645 468.586 247.012 468.586C240.723 468.586 236.738 465.773 235.059 460.148C233.066 453.469 236.055 439.309 244.023 417.668C239.531 417.277 237.09 416.496 236.699 415.324C236.582 414.973 236.523 414.602 236.523 414.211C236.523 413.781 236.699 413.293 237.051 412.746C237.441 412.199 237.93 411.672 238.516 411.164C239.883 410.031 241.27 409.465 242.676 409.465H247.305C251.523 399.582 254.531 393.957 256.328 392.59C257.188 391.965 258.145 391.652 259.199 391.652C260.254 391.652 261.133 391.789 261.836 392.062C262.539 392.336 263.164 392.727 263.711 393.234C264.961 394.406 265.586 395.715 265.586 397.16C265.586 397.941 265.352 398.84 264.883 399.855L260.547 409.289H261.953C264.375 409.289 266.328 409.27 267.812 409.23C267.812 409.23 268.926 409.211 271.152 409.172C271.895 409.133 272.812 409.113 273.906 409.113C275.039 409.113 275.605 409.523 275.605 410.344C275.605 415.5 269.512 418.078 257.324 418.078H256.855L252.871 428.391C248.379 440.578 246.133 449.113 246.133 453.996C246.133 455.363 246.445 456.438 247.07 457.219C247.695 457.961 248.867 458.332 250.586 458.332C252.305 458.332 253.867 458.039 255.273 457.453C256.68 456.867 257.91 456.223 258.965 455.52C260.02 454.777 260.918 454.113 261.66 453.527C262.441 452.941 263.105 452.648 263.652 452.648ZM317.91 452.414C317.91 456.008 319.18 457.805 321.719 457.805C323.477 457.805 324.922 457.531 326.055 456.984C327.227 456.438 328.008 456.164 328.398 456.164C329.219 456.164 329.629 456.594 329.629 457.453C329.629 460.812 327.871 463.703 324.355 466.125C320.645 468.664 316.855 469.289 312.988 468C310.449 467.102 308.574 465.168 307.363 462.199C306.777 460.676 306.484 459.289 306.484 458.039C306.484 456.008 306.68 453.859 307.07 451.594C303.438 459.016 298.926 464.133 293.535 466.945C291.387 468.039 289.102 468.586 286.68 468.586C284.258 468.586 282.148 468.098 280.352 467.121C278.594 466.105 277.09 464.719 275.84 462.961C273.301 459.289 272.148 454.68 272.383 449.133C272.617 442.18 274.668 435.363 278.535 428.684C282.09 422.434 286.582 417.336 292.012 413.391C297.441 409.367 302.52 407.355 307.246 407.355C311.973 407.355 315.781 409.523 318.672 413.859C321.367 409.523 323.75 407.355 325.82 407.355C328.047 407.355 329.727 407.766 330.859 408.586C333.008 410.148 333.77 411.516 333.145 412.688C323.34 432.766 318.301 445.266 318.027 450.188C317.949 450.891 317.91 451.633 317.91 452.414ZM285.391 452.648C285.391 457.336 286.895 459.68 289.902 459.68C292.207 459.68 295.039 457.727 298.398 453.82C303.32 448.078 307.676 440.344 311.465 430.617C312.676 427.57 313.691 424.523 314.512 421.477C314.355 418.82 313.242 416.867 311.172 415.617C310.469 415.188 309.414 414.973 308.008 414.973C306.641 414.973 305.02 415.48 303.145 416.496C301.309 417.512 299.512 418.898 297.754 420.656C296.035 422.414 294.414 424.504 292.891 426.926C291.406 429.309 290.098 431.906 288.965 434.719C286.582 440.734 285.391 446.711 285.391 452.648ZM372.051 455.227C366.113 464.133 359.531 468.586 352.305 468.586C345.781 468.586 341.387 465.109 339.121 458.156C338.34 455.773 337.949 452.844 337.949 449.367C337.949 445.891 338.438 442.414 339.414 438.938C340.43 435.422 341.797 432.102 343.516 428.977C345.234 425.852 347.246 422.98 349.551 420.363C351.895 417.707 354.395 415.422 357.051 413.508C362.598 409.406 368.105 407.355 373.574 407.355C379.043 407.355 382.949 409.914 385.293 415.031C385.762 414.523 386.191 414.016 386.582 413.508C386.973 412.961 387.402 412.453 387.871 411.984C388.887 410.969 389.766 410.461 390.508 410.461C391.289 410.461 392.09 410.598 392.91 410.871C393.77 411.145 394.59 411.516 395.371 411.984C397.285 413.117 398.008 414.172 397.539 415.148C395.391 419.797 393.594 424.367 392.148 428.859L383.477 456.516C376.641 477.492 367.969 491.047 357.461 497.18C354.688 498.82 352.285 499.758 350.254 499.992C348.223 500.266 346.758 500.285 345.859 500.051C344.961 499.816 344.16 499.484 343.457 499.055C341.934 498.078 341.172 497.199 341.172 496.418C341.172 495.051 342.07 494.211 343.867 493.898C345.703 493.586 347.617 492.844 349.609 491.672C351.602 490.539 353.496 489.152 355.293 487.512C362.676 480.676 368.262 469.914 372.051 455.227ZM354.473 434.895C353.457 437.707 352.656 440.598 352.07 443.566C351.484 446.496 351.191 448.898 351.191 450.773C351.191 452.648 351.25 454.074 351.367 455.051C351.484 456.027 351.719 456.887 352.07 457.629C352.852 459.27 354.004 460.09 355.527 460.09C357.051 460.09 358.555 459.562 360.039 458.508C361.523 457.414 363.086 455.93 364.727 454.055C366.367 452.18 368.008 449.973 369.648 447.434C371.289 444.895 372.852 442.16 374.336 439.23C377.617 432.746 379.922 426.555 381.25 420.656C381.055 419.562 380.391 418.449 379.258 417.316C377.031 415.168 375.02 414.094 373.223 414.094C371.426 414.094 369.629 414.66 367.832 415.793C366.035 416.887 364.316 418.391 362.676 420.305C361.074 422.18 359.57 424.387 358.164 426.926C356.758 429.426 355.527 432.082 354.473 434.895ZM443.242 418.43C442.031 418.43 440.312 419.602 438.086 421.945C435.859 424.25 433.926 426.359 432.285 428.273L427.305 434.25L417.695 446.496C415.43 450.793 413.652 454.367 412.363 457.219L409.199 464.016C408.379 465.695 407.656 466.887 407.031 467.59C406.445 468.254 405.625 468.586 404.57 468.586C403.555 468.586 402.559 468.391 401.582 468C400.645 467.648 399.824 467.18 399.121 466.594C397.637 465.344 396.895 463.977 396.895 462.492C396.895 461.906 397.324 460.754 398.184 459.035L400.41 454.289C401.113 452.883 401.934 451.086 402.871 448.898L406.152 440.871C410.762 429.348 413.066 421.906 413.066 418.547C413.066 416.75 412.48 415.422 411.309 414.562L410.137 413.742C409.746 413.469 409.551 413 409.551 412.336C409.551 411.633 409.805 410.969 410.312 410.344C410.859 409.719 411.562 409.172 412.422 408.703C414.18 407.805 415.938 407.355 417.695 407.355C419.492 407.355 420.879 407.551 421.855 407.941C422.832 408.332 423.652 408.859 424.316 409.523C425.762 410.891 426.484 412.316 426.484 413.801C426.484 415.285 426.289 416.789 425.898 418.312C425.547 419.797 425.078 421.32 424.492 422.883C423.945 424.406 423.359 425.91 422.734 427.395C422.109 428.879 421.543 430.168 421.035 431.262L419.863 433.781C419.551 434.406 419.473 434.602 419.629 434.367C423.965 428.352 426.816 424.484 428.184 422.766L432.285 417.844C435.293 414.328 437.656 412.004 439.375 410.871C442.852 408.527 445.586 407.355 447.578 407.355C449.57 407.355 451.25 407.609 452.617 408.117C453.984 408.625 455.176 409.348 456.191 410.285C458.34 412.277 459.414 414.816 459.414 417.902C459.414 420.988 458.711 424.211 457.305 427.57C455.898 430.93 454.668 433.664 453.613 435.773C452.598 437.844 451.621 439.953 450.684 442.102C447.754 448.625 446.289 453.371 446.289 456.34C446.289 457.668 447.344 458.332 449.453 458.332C451.094 458.332 452.578 457.98 453.906 457.277C455.273 456.574 456.152 456.223 456.543 456.223C457.363 456.223 457.773 456.633 457.773 457.453C457.773 460.93 455.996 463.84 452.441 466.184C450.059 467.785 447.871 468.586 445.879 468.586C443.887 468.586 442.227 468.371 440.898 467.941C439.609 467.512 438.457 466.828 437.441 465.891C435.137 463.82 433.984 460.93 433.984 457.219C433.984 452.688 435.41 447.023 438.262 440.227C440.332 435.578 441.797 432.395 442.656 430.676L444.648 426.516C445.859 424.016 446.465 422.043 446.465 420.598C446.465 419.152 445.391 418.43 443.242 418.43ZM513.613 452.414C513.613 456.008 514.883 457.805 517.422 457.805C519.18 457.805 520.625 457.531 521.758 456.984C522.93 456.438 523.711 456.164 524.102 456.164C524.922 456.164 525.332 456.594 525.332 457.453C525.332 460.812 523.574 463.703 520.059 466.125C516.348 468.664 512.559 469.289 508.691 468C506.152 467.102 504.277 465.168 503.066 462.199C502.48 460.676 502.188 459.289 502.188 458.039C502.188 456.008 502.383 453.859 502.773 451.594C499.141 459.016 494.629 464.133 489.238 466.945C487.09 468.039 484.805 468.586 482.383 468.586C479.961 468.586 477.852 468.098 476.055 467.121C474.297 466.105 472.793 464.719 471.543 462.961C469.004 459.289 467.852 454.68 468.086 449.133C468.32 442.18 470.371 435.363 474.238 428.684C477.793 422.434 482.285 417.336 487.715 413.391C493.145 409.367 498.223 407.355 502.949 407.355C507.676 407.355 511.484 409.523 514.375 413.859C517.07 409.523 519.453 407.355 521.523 407.355C523.75 407.355 525.43 407.766 526.562 408.586C528.711 410.148 529.473 411.516 528.848 412.688C519.043 432.766 514.004 445.266 513.73 450.188C513.652 450.891 513.613 451.633 513.613 452.414ZM481.094 452.648C481.094 457.336 482.598 459.68 485.605 459.68C487.91 459.68 490.742 457.727 494.102 453.82C499.023 448.078 503.379 440.344 507.168 430.617C508.379 427.57 509.395 424.523 510.215 421.477C510.059 418.82 508.945 416.867 506.875 415.617C506.172 415.188 505.117 414.973 503.711 414.973C502.344 414.973 500.723 415.48 498.848 416.496C497.012 417.512 495.215 418.898 493.457 420.656C491.738 422.414 490.117 424.504 488.594 426.926C487.109 429.309 485.801 431.906 484.668 434.719C482.285 440.734 481.094 446.711 481.094 452.648ZM567.52 452.648C568.652 452.648 569.219 453.41 569.219 454.934C569.219 456.223 568.828 457.473 568.047 458.684C566.992 460.949 564.883 463.098 561.719 465.129C558.125 467.434 554.512 468.586 550.879 468.586C544.59 468.586 540.605 465.773 538.926 460.148C536.934 453.469 539.922 439.309 547.891 417.668C543.398 417.277 540.957 416.496 540.566 415.324C540.449 414.973 540.391 414.602 540.391 414.211C540.391 413.781 540.566 413.293 540.918 412.746C541.309 412.199 541.797 411.672 542.383 411.164C543.75 410.031 545.137 409.465 546.543 409.465H551.172C555.391 399.582 558.398 393.957 560.195 392.59C561.055 391.965 562.012 391.652 563.066 391.652C564.121 391.652 565 391.789 565.703 392.062C566.406 392.336 567.031 392.727 567.578 393.234C568.828 394.406 569.453 395.715 569.453 397.16C569.453 397.941 569.219 398.84 568.75 399.855L564.414 409.289H565.82C568.242 409.289 570.195 409.27 571.68 409.23C571.68 409.23 572.793 409.211 575.02 409.172C575.762 409.133 576.68 409.113 577.773 409.113C578.906 409.113 579.473 409.523 579.473 410.344C579.473 415.5 573.379 418.078 561.191 418.078H560.723L556.738 428.391C552.246 440.578 550 449.113 550 453.996C550 455.363 550.312 456.438 550.938 457.219C551.562 457.961 552.734 458.332 554.453 458.332C556.172 458.332 557.734 458.039 559.141 457.453C560.547 456.867 561.777 456.223 562.832 455.52C563.887 454.777 564.785 454.113 565.527 453.527C566.309 452.941 566.973 452.648 567.52 452.648ZM577.129 447.492C577.285 444.094 577.852 440.852 578.828 437.766C579.805 434.641 581.113 431.633 582.754 428.742C584.395 425.812 586.309 423.059 588.496 420.48C590.723 417.863 593.125 415.578 595.703 413.625C601.289 409.445 606.934 407.355 612.637 407.355C619.316 407.355 623.77 410.109 625.996 415.617C626.777 417.492 627.148 419.719 627.109 422.297C627.07 424.836 626.582 427.199 625.645 429.387C624.707 431.535 623.398 433.508 621.719 435.305C620.078 437.062 618.105 438.645 615.801 440.051C613.535 441.457 611.055 442.648 608.359 443.625C602.812 445.578 596.875 446.594 590.547 446.672C590.391 447.219 590.293 448.039 590.254 449.133C590.215 450.227 590.332 451.457 590.605 452.824C590.879 454.152 591.348 455.344 592.012 456.398C593.418 458.742 595.449 459.914 598.105 459.914C602.637 459.914 607.051 458.586 611.348 455.93C612.871 455.031 614.102 454.113 615.039 453.176C616.016 452.199 616.855 451.711 617.559 451.711C618.262 451.711 618.867 452.141 619.375 453C619.922 453.82 620.195 454.758 620.195 455.812C620.195 457.883 619.609 459.68 618.438 461.203C613.516 466.125 606.191 468.586 596.465 468.586C590.723 468.586 586.113 466.867 582.637 463.43C578.73 459.523 576.895 454.211 577.129 447.492ZM611.348 415.148C607.246 415.148 603.301 417.961 599.512 423.586C596.309 428.43 593.73 434.172 591.777 440.812C598.301 440.148 603.965 437.57 608.77 433.078C613.184 428.859 615.391 424.816 615.391 420.949C615.391 417.082 614.043 415.148 611.348 415.148Z" fill="#0A5CFF"/>
</svg>
