<svg width="750" height="750" viewBox="0 0 750 750" fill="none" xmlns="http://www.w3.org/2000/svg">
<path fill-rule="evenodd" clip-rule="evenodd" d="M375 425C471.65 425 550 346.65 550 250C550 153.35 471.65 75 375 75C278.35 75 200 153.35 200 250C200 346.65 278.35 425 375 425ZM375 375C444.036 375 500 319.036 500 250C500 180.964 444.036 125 375 125C305.964 125 250 180.964 250 250C250 319.036 305.964 375 375 375Z" fill="#048EC4"/>
<path d="M589.86 35.1437C565.546 10.8203 509.331 32.3068 445.205 76.4035C423.508 67.5982 399.819 62.7035 375 62.7035C271.721 62.7035 187.702 146.722 187.702 249.999C187.702 274.816 192.596 298.505 201.402 320.202C157.309 384.322 135.822 440.53 160.141 464.853C167.104 471.821 176.684 475.027 188.311 475.027C217.295 475.027 259.03 455.054 304.791 423.594C326.493 432.399 350.177 437.294 375 437.294C478.279 437.294 562.299 353.275 562.299 249.999C562.299 225.181 557.404 201.492 548.599 179.795C592.687 115.676 614.178 59.4671 589.86 35.1437ZM442.912 228.297C436.13 226.954 429.572 231.334 428.218 238.092L415.732 300.523C415.732 300.533 415.732 300.543 415.732 300.548C415.552 301.467 415.502 302.401 415.527 303.33C415.537 303.615 415.582 303.885 415.607 304.169C415.672 304.824 415.777 305.468 415.946 306.112C416.026 306.412 416.106 306.701 416.206 306.991C416.421 307.625 416.701 308.235 417.02 308.829C417.15 309.069 417.255 309.314 417.395 309.543C417.889 310.337 418.459 311.102 419.148 311.796C419.742 312.39 420.392 312.915 421.076 313.374C421.56 313.699 422.08 313.934 422.594 314.183C422.809 314.288 423.009 314.428 423.234 314.518C423.808 314.753 424.402 314.903 424.997 315.052C425.187 315.097 425.366 315.182 425.561 315.217C426.36 315.372 427.164 315.457 427.974 315.457C428.783 315.457 429.592 315.377 430.391 315.217C430.401 315.217 430.411 315.217 430.421 315.212L492.854 302.726C499.617 301.372 504.002 294.795 502.648 288.032C501.295 281.269 494.732 276.899 487.954 278.238L464.689 282.893C488.838 256.971 511.324 230.36 530.783 204.493C535.013 218.943 537.326 234.201 537.326 249.999C537.326 339.501 464.504 412.321 375 412.321C311.718 412.321 256.817 375.901 230.056 322.939C248.996 296.553 272.775 267.31 301.41 236.438L297.294 257.006C295.94 263.768 300.326 270.346 307.088 271.7C307.918 271.865 308.742 271.945 309.551 271.945C315.379 271.945 320.594 267.839 321.783 261.905L334.269 199.474C334.269 199.464 334.269 199.454 334.269 199.449C334.449 198.53 334.499 197.596 334.474 196.667C334.464 196.382 334.419 196.112 334.394 195.828C334.329 195.174 334.224 194.529 334.054 193.885C333.975 193.585 333.895 193.296 333.795 193.006C333.58 192.372 333.3 191.762 332.981 191.168C332.851 190.928 332.746 190.683 332.606 190.454C332.112 189.66 331.542 188.895 330.853 188.201C330.159 187.507 329.394 186.938 328.595 186.443C328.376 186.308 328.141 186.203 327.911 186.083C327.297 185.754 326.672 185.469 326.023 185.249C325.753 185.159 325.484 185.08 325.204 185.005C324.53 184.83 323.855 184.715 323.166 184.65C322.916 184.625 322.672 184.585 322.417 184.58C321.473 184.55 320.534 184.6 319.605 184.78C319.595 184.78 319.585 184.78 319.58 184.78L257.147 197.266C250.384 198.62 245.999 205.198 247.353 211.96C248.706 218.723 255.269 223.098 262.047 221.754L285.312 217.1C261.163 243.021 238.677 269.632 219.218 295.499C214.987 281.055 212.675 265.796 212.675 249.999C212.675 160.496 285.497 87.6762 375 87.6762C438.282 87.6762 493.183 124.096 519.945 177.058C501.005 203.444 477.226 232.687 448.591 263.559L452.707 242.991C454.06 236.229 449.675 229.651 442.912 228.297ZM177.802 447.193C167.538 436.929 179.65 398.995 214.248 345.989C230.161 372.539 252.457 394.835 279.009 410.748C226.006 445.35 188.076 457.457 177.802 447.193ZM535.753 154.009C519.84 127.463 497.544 105.167 470.997 89.2545C524.005 54.6573 561.93 42.5506 572.199 52.8043C582.468 63.0681 570.355 100.997 535.753 154.009Z" fill="#071D26"/>
<path d="M45.9521 522.7H90.2022C104.902 522.7 112.252 528.9 112.252 541.3V600.4C112.252 612.8 104.902 619 90.2022 619H45.9521V522.7ZM86.0021 598.45V543.25C86.0021 541.05 84.7521 539.95 82.2522 539.95H72.2021V601.75H82.2522C84.7521 601.75 86.0021 600.65 86.0021 598.45ZM144.397 544.15H162.697C177.397 544.15 184.747 550.35 184.747 562.75V588.25H146.497V598.15C146.497 600.35 147.747 601.45 150.247 601.45H156.847C159.347 601.45 160.597 600.25 160.597 597.85V593.65H184.747V600.4C184.747 612.8 177.397 619 162.697 619H144.397C129.697 619 122.347 612.8 122.347 600.4V562.75C122.347 550.35 129.697 544.15 144.397 544.15ZM146.497 574.45H160.597V565C160.597 562.8 159.347 561.7 156.847 561.7H150.247C147.747 561.7 146.497 562.8 146.497 565V574.45ZM231.352 596.95V583.3C231.352 581.1 230.102 580 227.602 580H213.202C205.802 580 200.552 578.4 197.452 575.2C194.452 571.9 192.952 567.2 192.952 561.1V541.3C192.952 528.9 200.252 522.7 214.852 522.7H235.402C250.002 522.7 257.302 528.9 257.302 541.3V552.85H231.052V544.75C231.052 542.55 229.802 541.45 227.302 541.45H222.952C220.452 541.45 219.202 542.55 219.202 544.75V559C219.202 561.2 220.452 562.3 222.952 562.3H237.052C244.452 562.3 249.702 563.85 252.802 566.95C256.002 570.05 257.602 574.6 257.602 580.6V600.4C257.602 612.8 250.302 619 235.702 619H215.302C200.602 619 193.252 612.8 193.252 600.4V588.85H219.502V596.95C219.502 599.15 220.752 600.25 223.252 600.25H227.602C230.102 600.25 231.352 599.15 231.352 596.95ZM306.084 562.9H296.634V596.95C296.634 599.15 297.884 600.25 300.384 600.25H305.934V619H293.184C278.484 619 271.134 612.8 271.134 600.4V562.9H262.884V544.15H271.134V529.45H296.634V544.15H306.084V562.9ZM348.344 544.15H373.394V619H347.894V610.9C345.994 616.3 341.594 619 334.694 619H331.994C318.694 619 312.044 612.8 312.044 600.4V562.75C312.044 550.35 318.694 544.15 331.994 544.15H334.694C342.394 544.15 346.944 547.35 348.344 553.75V544.15ZM341.294 600.25H343.844C346.544 600.25 347.894 598.75 347.894 595.75V567.4C347.894 564.4 346.544 562.9 343.844 562.9H341.294C338.794 562.9 337.544 564 337.544 566.2V596.95C337.544 599.15 338.794 600.25 341.294 600.25ZM420.121 544.15H445.171V619.75C445.171 632.15 437.821 638.35 423.121 638.35H387.271V620.35H415.921C418.421 620.35 419.671 619.25 419.671 617.05V606.4C417.771 611.8 413.371 614.5 406.471 614.5H403.771C390.471 614.5 383.821 608.3 383.821 595.9V562.75C383.821 550.35 390.471 544.15 403.771 544.15H406.471C414.171 544.15 418.721 547.35 420.121 553.75V544.15ZM413.071 595.75H415.621C418.321 595.75 419.671 594.25 419.671 591.25V567.4C419.671 564.4 418.321 562.9 415.621 562.9H413.071C410.571 562.9 409.321 564 409.321 566.2V592.45C409.321 594.65 410.571 595.75 413.071 595.75ZM495.799 544.15H498.499C511.799 544.15 518.449 550.35 518.449 562.75V619H492.949V566.2C492.949 564 491.699 562.9 489.199 562.9H486.649C483.949 562.9 482.599 564.4 482.599 567.4V619H457.099V544.15H482.149V553.75C483.549 547.35 488.099 544.15 495.799 544.15ZM564.555 544.15H589.605V619H564.105V610.9C562.205 616.3 557.805 619 550.905 619H548.205C534.905 619 528.255 612.8 528.255 600.4V562.75C528.255 550.35 534.905 544.15 548.205 544.15H550.905C558.605 544.15 563.155 547.35 564.555 553.75V544.15ZM557.505 600.25H560.055C562.755 600.25 564.105 598.75 564.105 595.75V567.4C564.105 564.4 562.755 562.9 560.055 562.9H557.505C555.005 562.9 553.755 564 553.755 566.2V596.95C553.755 599.15 555.005 600.25 557.505 600.25ZM639.482 562.9H630.032V596.95C630.032 599.15 631.282 600.25 633.782 600.25H639.332V619H626.582C611.882 619 604.532 612.8 604.532 600.4V562.9H596.282V544.15H604.532V529.45H630.032V544.15H639.482V562.9ZM667.492 544.15H685.792C700.492 544.15 707.842 550.35 707.842 562.75V588.25H669.592V598.15C669.592 600.35 670.842 601.45 673.342 601.45H679.942C682.442 601.45 683.692 600.25 683.692 597.85V593.65H707.842V600.4C707.842 612.8 700.492 619 685.792 619H667.492C652.792 619 645.442 612.8 645.442 600.4V562.75C645.442 550.35 652.792 544.15 667.492 544.15ZM669.592 574.45H683.692V565C683.692 562.8 682.442 561.7 679.942 561.7H673.342C670.842 561.7 669.592 562.8 669.592 565V574.45Z" fill="#071D26"/>
</svg>
